<?xml version="1.0" encoding="utf-8"?>
<!-- Generator: Adobe Illustrator 16.0.0, SVG Export Plug-In . SVG Version: 6.00 Build 0)  -->
<!DOCTYPE svg PUBLIC "-//W3C//DTD SVG 1.1//EN" "http://www.w3.org/Graphics/SVG/1.1/DTD/svg11.dtd">
<svg version="1.1" id="Layer_1" xmlns="http://www.w3.org/2000/svg" xmlns:xlink="http://www.w3.org/1999/xlink" x="0px" y="0px"
	 width="132px" height="44px" viewBox="0 0 132 44" enable-background="new 0 0 132 44" xml:space="preserve">
<rect fill="none" width="44" height="44"/>
<rect x="44.019" fill="none" width="44" height="44"/>
<rect x="88" fill="none" width="44" height="44"/>
<path fill="#FFFFFF" d="M72.208,32.439c0.379,0.379,0.379,0.996,0,1.377c-0.373,0.381-0.985,0.382-1.36,0L59.829,22.689
	c-0.377-0.381-0.377-1,0-1.379l11.019-11.128c0.375-0.38,0.985-0.38,1.36,0c0.379,0.381,0.379,0.997,0.001,1.377L62.161,22
	L72.208,32.439z"/>
<path fill="#FFFFFF" d="M103.811,11.559c-0.379-0.379-0.379-0.996,0-1.375c0.373-0.381,0.986-0.383,1.361,0l11.018,11.126
	c0.377,0.381,0.377,0.999,0,1.379l-11.019,11.129c-0.375,0.38-0.985,0.38-1.36,0c-0.379-0.381-0.379-0.998,0-1.379L113.857,22
	L103.811,11.559z"/>
<g>
	<path fill="#FFFFFF" d="M33.407,32.439c0.379,0.379,0.379,0.996,0,1.377c-0.373,0.381-0.985,0.382-1.361,0L21.027,22.689
		c-0.377-0.381-0.377-1,0-1.379l11.019-11.128c0.376-0.38,0.986-0.38,1.361,0c0.379,0.38,0.379,0.997,0.001,1.377L23.36,22
		L33.407,32.439z"/>
	<path fill="#FFFFFF" d="M10.592,11.559c-0.379-0.379-0.379-0.996,0-1.376c0.373-0.38,0.986-0.381,1.361,0l11.02,11.127
		c0.377,0.381,0.377,0.999,0,1.379l-11.02,11.129c-0.375,0.38-0.986,0.38-1.361,0c-0.379-0.381-0.379-0.998,0-1.379L20.639,22
		L10.592,11.559z"/>
</g>
</svg>
