<?xml version="1.0" encoding="utf-8"?>
<!-- Generator: Adobe Illustrator 16.0.0, SVG Export Plug-In . SVG Version: 6.00 Build 0)  -->
<!DOCTYPE svg PUBLIC "-//W3C//DTD SVG 1.1//EN" "http://www.w3.org/Graphics/SVG/1.1/DTD/svg11.dtd">
<svg version="1.1" id="Layer_1" xmlns="http://www.w3.org/2000/svg" xmlns:xlink="http://www.w3.org/1999/xlink" x="0px" y="0px"
	 width="24px" height="48px" viewBox="0 0 24 48" enable-background="new 0 0 24 48" xml:space="preserve">
<rect x="-0.001" fill="none" width="24.001" height="24"/>
<path d="M5.988,8.435c-0.22-0.217-0.574-0.217-0.794,0c-0.218,0.216-0.219,0.568,0,0.785l6.409,6.345
	c0.22,0.218,0.574,0.218,0.793,0l6.409-6.345c0.219-0.217,0.219-0.568,0-0.785c-0.221-0.217-0.576-0.217-0.795,0L12,14.221
	L5.988,8.435z"/>
<rect x="-0.001" y="24" fill="none" width="24.001" height="24"/>
<path d="M5.988,39.565c-0.22,0.218-0.574,0.218-0.794,0c-0.218-0.216-0.219-0.567,0-0.784l6.409-6.346
	c0.22-0.217,0.574-0.217,0.793,0l6.409,6.346c0.219,0.217,0.219,0.567,0,0.784c-0.221,0.218-0.576,0.218-0.795,0L12,33.779
	L5.988,39.565z"/>
</svg>
