<?xml version="1.0" encoding="utf-8"?>
<!-- Generator: Adobe Illustrator 16.0.0, SVG Export Plug-In . SVG Version: 6.00 Build 0)  -->
<!DOCTYPE svg PUBLIC "-//W3C//DTD SVG 1.1//EN" "http://www.w3.org/Graphics/SVG/1.1/DTD/svg11.dtd">
<svg version="1.1" id="Layer_1" xmlns="http://www.w3.org/2000/svg" xmlns:xlink="http://www.w3.org/1999/xlink" x="0px" y="0px"
	 width="233.58px" height="22px" viewBox="0 0 233.58 22" enable-background="new 0 0 233.58 22" xml:space="preserve">
<g>
	<path fill="#333333" d="M23.574,0.47l-9.115,21.213H9.16L0,0.47h5.769l6.026,14.293L17.806,0.47H23.574z"/>
	<path fill="#333333" d="M30.904,5.027v3.846h9.357v4.467h-9.357v3.664h10.705v4.558H25.666V0.47h15.943v4.558H30.904z"/>
	<path fill="#333333" d="M50.498,21.562h-5.239V0.47h5.239v9.584l8.403-9.584h6.208l-8.04,9.251l8.721,11.841H59.4l-5.89-7.753
		l-3.013,3.468V21.562z"/>
	<path fill="#333333" d="M85.579,5.163h-6.692v16.398h-5.239V5.163H66.94V0.47h18.639V5.163z"/>
	<path fill="#333333" d="M90.144,3.232c2.14-2.124,4.79-3.187,7.949-3.187c3.159,0,5.806,1.06,7.942,3.18
		c2.134,2.119,3.207,4.719,3.217,7.797c0,3.079-1.067,5.679-3.203,7.799C103.925,20.94,101.277,22,98.108,22
		c-3.17,0-5.824-1.059-7.964-3.179c-2.14-2.118-3.209-4.716-3.209-7.791C86.934,7.956,88.003,5.355,90.144,3.232z M98.093,17.125
		c1.675,0,3.074-0.595,4.194-1.784c1.11-1.18,1.666-2.616,1.666-4.311c0-1.693-0.556-3.135-1.666-4.324
		c-1.121-1.19-2.519-1.785-4.194-1.785c-1.686,0-3.084,0.595-4.194,1.785c-1.111,1.189-1.666,2.631-1.666,4.324
		c0,1.694,0.555,3.136,1.666,4.325C95.009,16.546,96.407,17.135,98.093,17.125z"/>
	<path fill="#333333" d="M117.793,15.429v6.133h-5.238V0.47h9.206c2.644,0,4.764,0.668,6.359,2.004
		c1.595,1.337,2.392,3.139,2.392,5.407c0,1.44-0.354,2.727-1.06,3.859c-0.707,1.134-1.702,2.021-2.983,2.666l5.436,7.155h-6.298
		l-4.558-6.133H117.793z M117.793,10.735h3.876c1.029,0,1.887-0.263,2.574-0.79c0.686-0.525,1.029-1.209,1.029-2.049
		s-0.343-1.519-1.029-2.034c-0.687-0.517-1.545-0.774-2.574-0.774h-3.876V10.735z"/>
	<path fill="#8822DD" d="M142.037,0c1.943,0,3.74,0.45,5.391,1.348c0.889,0.484,1.637,1.212,2.247,2.181
		c0.611,0.969,0.975,2.125,1.093,3.468h-4.983c-0.312-1.767-1.444-2.65-3.398-2.65c-0.91,0-1.641,0.188-2.192,0.561
		c-0.552,0.374-0.827,0.866-0.827,1.478c0,0.61,0.229,1.06,0.689,1.348c0.46,0.287,1.174,0.527,2.141,0.72l2.938,0.681
		c1.86,0.455,3.271,1.141,4.228,2.059c0.956,0.919,1.436,2.236,1.436,3.951c0,2.109-0.752,3.78-2.256,5.012S144.999,22,142.424,22
		c-2.573,0-4.747-0.626-6.518-1.877c-1.771-1.252-2.768-3.108-2.989-5.572h5.238c0.159,0.93,0.618,1.658,1.38,2.188
		c0.762,0.529,1.687,0.795,2.774,0.795c2.125,0,3.188-0.621,3.188-1.862c0-0.907-0.616-1.509-1.848-1.801l-3.468-0.773
		c-2.089-0.455-3.631-1.184-4.625-2.188c-0.994-1.004-1.491-2.344-1.491-4.02c0-2.094,0.732-3.767,2.197-5.015
		C137.729,0.626,139.654,0,142.037,0z"/>
	<path fill="#8822DD" d="M171.76,5.163h-6.692v16.398h-5.238V5.163h-6.708V0.47h18.639V5.163z"/>
	<path fill="#8822DD" d="M185.688,17.928h-8.934l-1.393,3.634h-5.572l8.948-21.213h5.027l8.933,21.213h-5.587L185.688,17.928z
		 M183.961,13.461l-2.74-6.995l-2.726,6.995H183.961z"/>
	<path fill="#8822DD" d="M200.042,15.429v6.133h-5.239V0.47h9.206c2.645,0,4.765,0.668,6.359,2.004
		c1.595,1.337,2.393,3.139,2.393,5.407c0,1.44-0.354,2.727-1.061,3.859c-0.706,1.134-1.7,2.021-2.982,2.666l5.436,7.155h-6.299
		l-4.558-6.133H200.042z M200.042,10.735h3.876c1.029,0,1.887-0.263,2.574-0.79c0.686-0.525,1.029-1.209,1.029-2.049
		s-0.344-1.519-1.029-2.034c-0.688-0.517-1.545-0.774-2.574-0.774h-3.876V10.735z"/>
	<path fill="#8822DD" d="M233.58,5.163h-6.692v16.398h-5.238V5.163h-6.707V0.47h18.638V5.163z"/>
</g>
</svg>
